<svg xmlns="http://www.w3.org/2000/svg" xmlns:xlink="http://www.w3.org/1999/xlink" viewBox="0 0 500 500" width="500" height="500" style="width: 100%; height: 100%; transform: translate3d(0px, 0px, 0px);" preserveAspectRatio="xMidYMid meet"><defs><clipPath id="__lottie_element_10"><rect width="500" height="500" x="0" y="0"/></clipPath><clipPath id="__lottie_element_13"><path d="M0,0 L500,0 L500,500 L0,500z"/></clipPath><clipPath id="__lottie_element_17"><path d="M0,0 L500,0 L500,500 L0,500z"/></clipPath><clipPath id="__lottie_element_21"><path d="M0,0 L500,0 L500,500 L0,500z"/></clipPath><clipPath id="__lottie_element_25"><path d="M0,0 L500,0 L500,500 L0,500z"/></clipPath><clipPath id="__lottie_element_29"><path d="M0,0 L500,0 L500,500 L0,500z"/></clipPath><clipPath id="__lottie_element_33"><path d="M0,0 L500,0 L500,500 L0,500z"/></clipPath><clipPath id="__lottie_element_77"><path fill="#ffffff" clip-rule="nonzero" d=" M153.9969940185547,10.321000099182129 C153.9969940185547,10.321000099182129 -142.0030059814453,10.321000099182129 -142.0030059814453,10.321000099182129 C-142.0030059814453,10.321000099182129 -142.0030059814453,220.3209991455078 -142.0030059814453,220.3209991455078 C-142.0030059814453,220.3209991455078 153.9969940185547,220.3209991455078 153.9969940185547,220.3209991455078 C153.9969940185547,220.3209991455078 153.9969940185547,10.321000099182129 153.9969940185547,10.321000099182129" fill-opacity="1"/></clipPath></defs><g clip-path="url(#__lottie_element_10)"><g clip-path="url(#__lottie_element_13)" style="display: block;" transform="matrix(1,0,0,1,0,0)" opacity="0"><g class="primary design" style="display: block;" transform="matrix(20.829999923706055,0,0,20.829999923706055,250.0019989013672,249.63699340820312)" opacity="1"><g opacity="1" transform="matrix(1,0,0,1,0,0)"><path fill="rgb(255,255,255)" fill-opacity="1" d=" M8.25,-3.6429998874664307 C8.25,-3.6429998874664307 1,-8.70199966430664 1,-8.70199966430664 C0.4000000059604645,-9.121999740600586 -0.4000000059604645,-9.121999740600586 -1,-8.70199966430664 C-1,-8.70199966430664 -8.25,-3.6429998874664307 -8.25,-3.6429998874664307 C-8.720000267028809,-3.322999954223633 -9,-2.7820000648498535 -9,-2.2119998931884766 C-9,-2.2119998931884766 -9,7.26800012588501 -9,7.26800012588501 C-9,8.227999687194824 -8.210000038146973,9.017999649047852 -7.25,9.017999649047852 C-7.25,9.017999649047852 -4.25,9.017999649047852 -4.25,9.017999649047852 C-2.7300000190734863,9.017999649047852 -1.5,7.788000106811523 -1.5,6.26800012588501 C-1.5,6.26800012588501 -1.5,2.7679998874664307 -1.5,2.7679998874664307 C-1.5,2.628000020980835 -1.3899999856948853,2.5179998874664307 -1.25,2.5179998874664307 C-1.25,2.5179998874664307 1.25,2.5179998874664307 1.25,2.5179998874664307 C1.3899999856948853,2.5179998874664307 1.5,2.628000020980835 1.5,2.7679998874664307 C1.5,2.7679998874664307 1.5,6.26800012588501 1.5,6.26800012588501 C1.5,7.788000106811523 2.7300000190734863,9.017999649047852 4.25,9.017999649047852 C4.25,9.017999649047852 7.25,9.017999649047852 7.25,9.017999649047852 C8.210000038146973,9.017999649047852 9,8.227999687194824 9,7.26800012588501 C9,7.26800012588501 9,-2.2119998931884766 9,-2.2119998931884766 C9,-2.7820000648498535 8.720000267028809,-3.322999954223633 8.25,-3.6429998874664307z M7.5,7.26800012588501 C7.5,7.4079999923706055 7.389999866485596,7.51800012588501 7.25,7.51800012588501 C7.25,7.51800012588501 4.25,7.51800012588501 4.25,7.51800012588501 C3.559999942779541,7.51800012588501 3,6.958000183105469 3,6.26800012588501 C3,6.26800012588501 3,2.7679998874664307 3,2.7679998874664307 C3,1.8079999685287476 2.2100000381469727,1.0180000066757202 1.25,1.0180000066757202 C1.25,1.0180000066757202 -1.25,1.0180000066757202 -1.25,1.0180000066757202 C-2.2100000381469727,1.0180000066757202 -3,1.8079999685287476 -3,2.7679998874664307 C-3,2.7679998874664307 -3,6.26800012588501 -3,6.26800012588501 C-3,6.958000183105469 -3.559999942779541,7.51800012588501 -4.25,7.51800012588501 C-4.25,7.51800012588501 -7.25,7.51800012588501 -7.25,7.51800012588501 C-7.389999866485596,7.51800012588501 -7.5,7.4079999923706055 -7.5,7.26800012588501 C-7.5,7.26800012588501 -7.5,-2.2119998931884766 -7.5,-2.2119998931884766 C-7.5,-2.2920000553131104 -7.460000038146973,-2.372999906539917 -7.389999866485596,-2.4230000972747803 C-7.389999866485596,-2.4230000972747803 -0.14000000059604645,-7.4730000495910645 -0.14000000059604645,-7.4730000495910645 C-0.05000000074505806,-7.5329999923706055 0.05999999865889549,-7.5329999923706055 0.15000000596046448,-7.4730000495910645 C0.15000000596046448,-7.4730000495910645 7.400000095367432,-2.4230000972747803 7.400000095367432,-2.4230000972747803 C7.46999979019165,-2.372999906539917 7.510000228881836,-2.302000045776367 7.510000228881836,-2.2119998931884766 C7.510000228881836,-2.2119998931884766 7.510000228881836,7.26800012588501 7.510000228881836,7.26800012588501 C7.510000228881836,7.26800012588501 7.5,7.26800012588501 7.5,7.26800012588501z"/></g></g><g class="primary design" style="display: none;" transform="matrix(1,0,0,1,250.0030059814453,249.6790008544922)" opacity="1"><g opacity="1" transform="matrix(1,0,0,1,0,0)"><path stroke-linecap="round" stroke-linejoin="round" fill-opacity="0" stroke="rgb(18,19,49)" stroke-opacity="1" stroke-width="31.3" d=" M26.082456588745117,36.70867156982422 C26.082456588745117,36.70867156982422 -26.01844596862793,36.82658767700195 -26.01844596862793,36.82658767700195 C-34.442447662353516,36.82658767700195 -46.87623977661133,43.65158462524414 -46.87744140625,57.733543395996094 C-46.87744140625,57.733543395996094 -47.25235366821289,130.33302307128906 -47.25235366821289,130.33302307128906 C-47.25391387939453,153.4536590576172 -65.88935089111328,172.1999969482422 -88.87535095214844,172.1999969482422 C-88.87535095214844,172.1999969482422 -150.00399780273438,172.1999969482422 -150.00399780273438,172.1999969482422 C-161.8780059814453,172.1999969482422 -171.5030059814453,162.51600646972656 -171.5030059814453,150.57200622558594 C-171.5030059814453,150.57200622558594 -171.91400146484375,-46.0890007019043 -171.91400146484375,-46.0890007019043 C-171.91400146484375,-54.742000579833984 -166.3780059814453,-61.117000579833984 -162.89300537109375,-63.17300033569336 C-162.89300537109375,-63.17300033569336 -19.448999404907227,-163.16400146484375 -12.003000259399414,-168.34300231933594 C-4.690000057220459,-173.42999267578125 4.059000015258789,-173.61700439453125 11.934000015258789,-168.40499877929688 C18.259000778198242,-164.218994140625 162.8780059814453,-63.154998779296875 162.8780059814453,-63.154998779296875 C165.18499755859375,-61.80400085449219 171.8990020751953,-56.367000579833984 171.8990020751953,-46.00899887084961 C171.8990020751953,-46.00899887084961 171.87899780273438,151.4459991455078 171.87899780273438,151.4459991455078 C171.87899780273438,163.2530059814453 162.3719940185547,172.20399475097656 151.02499389648438,172.20399475097656 C151.02499389648438,172.20399475097656 88.46835327148438,172.1999969482422 88.46835327148438,172.1999969482422 C65.84135437011719,172.1999969482422 46.84746170043945,153.36170959472656 46.84537887573242,130.51402282714844 C46.84537887573242,130.51402282714844 46.90846633911133,57.6406135559082 46.90846633911133,57.6406135559082 C46.9077033996582,47.52608108520508 38.936458587646484,36.70867156982422 26.082456588745117,36.70867156982422z"/></g></g><g class="primary design" style="display: none;" transform="matrix(1,0,0,1,250.0030059814453,249.6790008544922)" opacity="1"><g opacity="1" transform="matrix(1,0,0,1,0,0)"><path stroke-linecap="round" stroke-linejoin="round" fill-opacity="0" stroke="rgb(18,19,49)" stroke-opacity="1" stroke-width="31.3" d=" M-150.00399780273438,172.1999969482422 C-161.8780059814453,172.1999969482422 -171.5030059814453,162.51600646972656 -171.5030059814453,150.57200622558594 C-171.5030059814453,150.57200622558594 -171.91400146484375,-46.0890007019043 -171.91400146484375,-46.0890007019043 C-171.91400146484375,-54.742000579833984 -166.3780059814453,-61.117000579833984 -162.89300537109375,-63.17300033569336 C-162.89300537109375,-63.17300033569336 -19.448999404907227,-163.16400146484375 -12.003000259399414,-168.34300231933594 C-4.690000057220459,-173.42999267578125 4.059000015258789,-173.61700439453125 11.934000015258789,-168.40499877929688 C18.259000778198242,-164.218994140625 162.8780059814453,-63.154998779296875 162.8780059814453,-63.154998779296875 C165.18499755859375,-61.80400085449219 171.8990020751953,-56.367000579833984 171.8990020751953,-46.00899887084961 C171.8990020751953,-46.00899887084961 171.87899780273438,151.4459991455078 171.87899780273438,151.4459991455078 C171.87899780273438,163.2530059814453 162.3719940185547,172.20399475097656 151.02499389648438,172.20399475097656 C151.02499389648438,172.20399475097656 -150.00399780273438,172.1999969482422 -150.00399780273438,172.1999969482422z"/></g></g><g class="primary design" style="display: none;" transform="matrix(1,0,0,1,250.00299072265625,-25.01325225830078)" opacity="1"><g opacity="1" transform="matrix(1,0,0,1,0,0)"><path stroke-linecap="round" stroke-linejoin="round" fill-opacity="0" stroke="rgb(18,19,49)" stroke-opacity="1" stroke-width="31.3" d=" M11.324686050415039,109.9520034790039 C11.324686050415039,109.9520034790039 -11.65168571472168,109.95197296142578 -11.65168571472168,109.95197296142578"/></g></g><g style="display: none;" transform="matrix(1,0,0,1,249.75799560546875,359.5060119628906)" opacity="1"><g opacity="1" transform="matrix(1,0,0,1,0,0)"><path fill="rgb(18,19,49)" fill-opacity="1" d=" M67.9469985961914,15.625 C67.9469985961914,15.625 -67.9469985961914,15.625 -67.9469985961914,15.625 C-76.572998046875,15.625 -83.5719985961914,8.62600040435791 -83.5719985961914,0 C-83.5719985961914,-8.62600040435791 -76.572998046875,-15.625 -67.9469985961914,-15.625 C-67.9469985961914,-15.625 67.9469985961914,-15.625 67.9469985961914,-15.625 C76.572998046875,-15.625 83.5719985961914,-8.62600040435791 83.5719985961914,0 C83.5719985961914,8.62600040435791 76.572998046875,15.625 67.9469985961914,15.625z"/></g></g></g><g clip-path="url(#__lottie_element_17)" style="display: block;" transform="matrix(1,0,0,1,0,0)" opacity="0"><g class="primary design" style="display: block;" transform="matrix(20.829999923706055,0,0,20.829999923706055,250.0019989013672,249.63699340820312)" opacity="1"><g opacity="1" transform="matrix(1,0,0,1,0,0)"><path fill="rgb(255,255,255)" fill-opacity="1" d=" M8.25,-3.6429998874664307 C8.25,-3.6429998874664307 1,-8.70199966430664 1,-8.70199966430664 C0.4000000059604645,-9.121999740600586 -0.4000000059604645,-9.121999740600586 -1,-8.70199966430664 C-1,-8.70199966430664 -8.25,-3.6429998874664307 -8.25,-3.6429998874664307 C-8.720000267028809,-3.322999954223633 -9,-2.7820000648498535 -9,-2.2119998931884766 C-9,-2.2119998931884766 -9,7.26800012588501 -9,7.26800012588501 C-9,8.227999687194824 -8.210000038146973,9.017999649047852 -7.25,9.017999649047852 C-7.25,9.017999649047852 -4.25,9.017999649047852 -4.25,9.017999649047852 C-2.7300000190734863,9.017999649047852 -1.5,7.788000106811523 -1.5,6.26800012588501 C-1.5,6.26800012588501 -1.5,2.7679998874664307 -1.5,2.7679998874664307 C-1.5,2.628000020980835 -1.3899999856948853,2.5179998874664307 -1.25,2.5179998874664307 C-1.25,2.5179998874664307 1.25,2.5179998874664307 1.25,2.5179998874664307 C1.3899999856948853,2.5179998874664307 1.5,2.628000020980835 1.5,2.7679998874664307 C1.5,2.7679998874664307 1.5,6.26800012588501 1.5,6.26800012588501 C1.5,7.788000106811523 2.7300000190734863,9.017999649047852 4.25,9.017999649047852 C4.25,9.017999649047852 7.25,9.017999649047852 7.25,9.017999649047852 C8.210000038146973,9.017999649047852 9,8.227999687194824 9,7.26800012588501 C9,7.26800012588501 9,-2.2119998931884766 9,-2.2119998931884766 C9,-2.7820000648498535 8.720000267028809,-3.322999954223633 8.25,-3.6429998874664307z M7.5,7.26800012588501 C7.5,7.4079999923706055 7.389999866485596,7.51800012588501 7.25,7.51800012588501 C7.25,7.51800012588501 4.25,7.51800012588501 4.25,7.51800012588501 C3.559999942779541,7.51800012588501 3,6.958000183105469 3,6.26800012588501 C3,6.26800012588501 3,2.7679998874664307 3,2.7679998874664307 C3,1.8079999685287476 2.2100000381469727,1.0180000066757202 1.25,1.0180000066757202 C1.25,1.0180000066757202 -1.25,1.0180000066757202 -1.25,1.0180000066757202 C-2.2100000381469727,1.0180000066757202 -3,1.8079999685287476 -3,2.7679998874664307 C-3,2.7679998874664307 -3,6.26800012588501 -3,6.26800012588501 C-3,6.958000183105469 -3.559999942779541,7.51800012588501 -4.25,7.51800012588501 C-4.25,7.51800012588501 -7.25,7.51800012588501 -7.25,7.51800012588501 C-7.389999866485596,7.51800012588501 -7.5,7.4079999923706055 -7.5,7.26800012588501 C-7.5,7.26800012588501 -7.5,-2.2119998931884766 -7.5,-2.2119998931884766 C-7.5,-2.2920000553131104 -7.460000038146973,-2.372999906539917 -7.389999866485596,-2.4230000972747803 C-7.389999866485596,-2.4230000972747803 -0.14000000059604645,-7.4730000495910645 -0.14000000059604645,-7.4730000495910645 C-0.05000000074505806,-7.5329999923706055 0.05999999865889549,-7.5329999923706055 0.15000000596046448,-7.4730000495910645 C0.15000000596046448,-7.4730000495910645 7.400000095367432,-2.4230000972747803 7.400000095367432,-2.4230000972747803 C7.46999979019165,-2.372999906539917 7.510000228881836,-2.302000045776367 7.510000228881836,-2.2119998931884766 C7.510000228881836,-2.2119998931884766 7.510000228881836,7.26800012588501 7.510000228881836,7.26800012588501 C7.510000228881836,7.26800012588501 7.5,7.26800012588501 7.5,7.26800012588501z"/></g></g><g class="primary design" style="display: none;" transform="matrix(1,0,0,1,250.0030059814453,249.6790008544922)" opacity="1"><g opacity="1" transform="matrix(1,0,0,1,0,0)"><path stroke-linecap="round" stroke-linejoin="round" fill-opacity="0" stroke="rgb(18,19,49)" stroke-opacity="1" stroke-width="31.3" d=" M26.032390594482422,36.68899917602539 C26.032390594482422,36.68899917602539 -26.052818298339844,36.80699920654297 -26.052818298339844,36.80699920654297 C-34.47475051879883,36.80699920654297 -46.90669631958008,43.632999420166016 -46.90669631958008,57.71699905395508 C-46.90669631958008,57.71699905395508 -47.27860641479492,130.32699584960938 -47.27860641479492,130.32699584960938 C-47.27860641479492,153.4510040283203 -65.9110336303711,172.1999969482422 -88.89138793945312,172.1999969482422 C-88.89138793945312,172.1999969482422 -150.00938415527344,172.1999969482422 -150.00938415527344,172.1999969482422 C-161.88046264648438,172.1999969482422 -171.5030975341797,162.51600646972656 -171.5030975341797,150.57200622558594 C-171.5030975341797,150.57200622558594 -171.91400146484375,-46.0890007019043 -171.91400146484375,-46.0890007019043 C-171.91400146484375,-54.742000579833984 -166.37936401367188,-61.117000579833984 -162.8952178955078,-63.17300033569336 C-162.8952178955078,-63.17300033569336 -19.486431121826172,-163.16400146484375 -12.042259216308594,-168.34300231933594 C-4.731054306030273,-173.42999267578125 4.0157976150512695,-173.61700439453125 11.888864517211914,-168.40499877929688 C18.212310791015625,-164.218994140625 162.79580688476562,-63.154998779296875 162.79580688476562,-63.154998779296875 C165.10223388671875,-61.80400085449219 171.81459045410156,-56.367000579833984 171.81459045410156,-46.00899887084961 C171.81459045410156,-46.00899887084961 171.7946014404297,151.45724487304688 171.7946014404297,151.45724487304688 C171.7946014404297,163.25784301757812 162.29278564453125,172.20399475097656 150.95199584960938,172.20399475097656 C150.95199584960938,172.20399475097656 88.40007781982422,172.1999969482422 88.40007781982422,172.1999969482422 C65.77863311767578,172.1999969482422 46.78729248046875,153.35899353027344 46.78729248046875,130.50799560546875 C46.78729248046875,130.50799560546875 46.85327911376953,57.624000549316406 46.85327911376953,57.624000549316406 C46.85327911376953,47.507999420166016 38.883235931396484,36.68899917602539 26.032390594482422,36.68899917602539z"/></g></g><g class="primary design" style="display: none;" transform="matrix(1,0,0,1,250.0030059814453,249.6790008544922)" opacity="1"><g opacity="1" transform="matrix(1,0,0,1,0,0)"><path stroke-linecap="round" stroke-linejoin="round" fill-opacity="0" stroke="rgb(18,19,49)" stroke-opacity="1" stroke-width="31.3" d=" M-0.7926092147827148,-172.13101196289062 C-0.7926092147827148,-172.13101196289062 -0.46090683341026306,-171.8043670654297 -0.45971331000328064,-172.232177734375 C3.7092301845550537,-172.2322235107422 7.955153942108154,-171.06617736816406 11.97513484954834,-168.40518188476562 C18.298532485961914,-164.21917724609375 162.88088989257812,-63.155181884765625 162.88088989257812,-63.155181884765625 C165.1873016357422,-61.80418395996094 171.8996124267578,-56.367183685302734 171.8996124267578,-46.00918197631836 C171.8996124267578,-46.00918197631836 171.87960815429688,151.44581604003906 171.87960815429688,151.44581604003906 C171.87960815429688,163.25282287597656 162.37501525878906,172.2038116455078 151.03089904785156,172.2038116455078 C151.03089904785156,172.2038116455078 150.88783264160156,171.83718872070312 150.88783264160156,171.83718872070312"/></g></g></g><g clip-path="url(#__lottie_element_21)" style="display: block;" transform="matrix(1,0,0,1,0,0)" opacity="1"><g class="primary design" style="display: block;" transform="matrix(20.829999923706055,0,0,20.829999923706055,250.0019989013672,249.63699340820312)" opacity="1"><g opacity="1" transform="matrix(1,0,0,1,0,0)"><path fill="rgb(255,255,255)" fill-opacity="1" d=" M8.25,-3.6429998874664307 C8.25,-3.6429998874664307 1,-8.70199966430664 1,-8.70199966430664 C0.4000000059604645,-9.121999740600586 -0.4000000059604645,-9.121999740600586 -1,-8.70199966430664 C-1,-8.70199966430664 -8.25,-3.6429998874664307 -8.25,-3.6429998874664307 C-8.720000267028809,-3.322999954223633 -9,-2.7820000648498535 -9,-2.2119998931884766 C-9,-2.2119998931884766 -9,7.26800012588501 -9,7.26800012588501 C-9,8.227999687194824 -8.210000038146973,9.017999649047852 -7.25,9.017999649047852 C-7.25,9.017999649047852 -4.25,9.017999649047852 -4.25,9.017999649047852 C-2.7300000190734863,9.017999649047852 -1.5,7.788000106811523 -1.5,6.26800012588501 C-1.5,6.26800012588501 -1.5,2.7679998874664307 -1.5,2.7679998874664307 C-1.5,2.628000020980835 -1.3899999856948853,2.5179998874664307 -1.25,2.5179998874664307 C-1.25,2.5179998874664307 1.25,2.5179998874664307 1.25,2.5179998874664307 C1.3899999856948853,2.5179998874664307 1.5,2.628000020980835 1.5,2.7679998874664307 C1.5,2.7679998874664307 1.5,6.26800012588501 1.5,6.26800012588501 C1.5,7.788000106811523 2.7300000190734863,9.017999649047852 4.25,9.017999649047852 C4.25,9.017999649047852 7.25,9.017999649047852 7.25,9.017999649047852 C8.210000038146973,9.017999649047852 9,8.227999687194824 9,7.26800012588501 C9,7.26800012588501 9,-2.2119998931884766 9,-2.2119998931884766 C9,-2.7820000648498535 8.720000267028809,-3.322999954223633 8.25,-3.6429998874664307z M7.5,7.26800012588501 C7.5,7.4079999923706055 7.389999866485596,7.51800012588501 7.25,7.51800012588501 C7.25,7.51800012588501 4.25,7.51800012588501 4.25,7.51800012588501 C3.559999942779541,7.51800012588501 3,6.958000183105469 3,6.26800012588501 C3,6.26800012588501 3,2.7679998874664307 3,2.7679998874664307 C3,1.8079999685287476 2.2100000381469727,1.0180000066757202 1.25,1.0180000066757202 C1.25,1.0180000066757202 -1.25,1.0180000066757202 -1.25,1.0180000066757202 C-2.2100000381469727,1.0180000066757202 -3,1.8079999685287476 -3,2.7679998874664307 C-3,2.7679998874664307 -3,6.26800012588501 -3,6.26800012588501 C-3,6.958000183105469 -3.559999942779541,7.51800012588501 -4.25,7.51800012588501 C-4.25,7.51800012588501 -7.25,7.51800012588501 -7.25,7.51800012588501 C-7.389999866485596,7.51800012588501 -7.5,7.4079999923706055 -7.5,7.26800012588501 C-7.5,7.26800012588501 -7.5,-2.2119998931884766 -7.5,-2.2119998931884766 C-7.5,-2.2920000553131104 -7.460000038146973,-2.372999906539917 -7.389999866485596,-2.4230000972747803 C-7.389999866485596,-2.4230000972747803 -0.14000000059604645,-7.4730000495910645 -0.14000000059604645,-7.4730000495910645 C-0.05000000074505806,-7.5329999923706055 0.05999999865889549,-7.5329999923706055 0.15000000596046448,-7.4730000495910645 C0.15000000596046448,-7.4730000495910645 7.400000095367432,-2.4230000972747803 7.400000095367432,-2.4230000972747803 C7.46999979019165,-2.372999906539917 7.510000228881836,-2.302000045776367 7.510000228881836,-2.2119998931884766 C7.510000228881836,-2.2119998931884766 7.510000228881836,7.26800012588501 7.510000228881836,7.26800012588501 C7.510000228881836,7.26800012588501 7.5,7.26800012588501 7.5,7.26800012588501z"/></g></g><g class="primary design" style="display: none;" transform="matrix(1,0,0,1,250.0030059814453,249.6790008544922)" opacity="1"><g opacity="1" transform="matrix(1,0,0,1,0,0)"><path stroke-linecap="round" stroke-linejoin="round" fill-opacity="0" stroke="rgb(18,19,49)" stroke-opacity="1" stroke-width="31.3" d=" M26.084421157836914,36.73519515991211 C26.084421157836914,36.73519515991211 -26.020397186279297,36.852996826171875 -26.020397186279297,36.852996826171875 C-34.44439697265625,36.852996826171875 -46.876564025878906,43.676639556884766 -46.8793830871582,57.75584030151367 C-46.8793830871582,57.75584030151367 -47.25822067260742,130.3411407470703 -47.25822067260742,130.3411407470703 C-47.26188659667969,153.45726013183594 -65.89521789550781,172.1999969482422 -88.88121795654297,172.1999969482422 C-88.88121795654297,172.1999969482422 -150.00399780273438,172.1999969482422 -150.00399780273438,172.1999969482422 C-161.8780059814453,172.1999969482422 -171.5030059814453,162.51600646972656 -171.5030059814453,150.57200622558594 C-171.5030059814453,150.57200622558594 -171.91400146484375,-46.0890007019043 -171.91400146484375,-46.0890007019043 C-171.91400146484375,-54.742000579833984 -166.3780059814453,-61.117000579833984 -162.89300537109375,-63.17300033569336 C-162.89300537109375,-63.17300033569336 -19.448999404907227,-163.16400146484375 -12.003000259399414,-168.34300231933594 C-4.690000057220459,-173.42999267578125 4.059000015258789,-173.61700439453125 11.934000015258789,-168.40499877929688 C18.259000778198242,-164.218994140625 162.8780059814453,-63.154998779296875 162.8780059814453,-63.154998779296875 C165.18499755859375,-61.80400085449219 171.8990020751953,-56.367000579833984 171.8990020751953,-46.00899887084961 C171.8990020751953,-46.00899887084961 171.87899780273438,151.4459991455078 171.87899780273438,151.4459991455078 C171.87899780273438,163.2530059814453 162.3719940185547,172.20399475097656 151.02499389648438,172.20399475097656 C151.02499389648438,172.20399475097656 88.4742202758789,172.1999969482422 88.4742202758789,172.1999969482422 C65.84722137451172,172.1999969482422 46.85617446899414,153.3653564453125 46.85127639770508,130.5221405029297 C46.85127639770508,130.5221405029297 46.91044235229492,57.66301345825195 46.91044235229492,57.66301345825195 C46.908653259277344,47.55045700073242 38.938419342041016,36.73519515991211 26.084421157836914,36.73519515991211z"/></g></g><g class="primary design" style="display: none;" transform="matrix(1,0,0,1,250.00299072265625,162.94796752929688)" opacity="1"><g opacity="1" transform="matrix(1,0,0,1,0,0)"><path stroke-linecap="round" stroke-linejoin="round" fill-opacity="0" stroke="rgb(18,19,49)" stroke-opacity="1" stroke-width="31.3" d=" M11.771905899047852,109.9520034790039 C11.771905899047852,109.9520034790039 -12.098905563354492,109.95196533203125 -12.098905563354492,109.95196533203125"/></g></g></g><g clip-path="url(#__lottie_element_25)" style="display: block;" transform="matrix(1,0,0,1,0,0)" opacity="0"><g class="primary design" style="display: block;" transform="matrix(20.829999923706055,0,0,20.829999923706055,250.0019989013672,249.63699340820312)" opacity="1"><g opacity="1" transform="matrix(1,0,0,1,0,0)"><path fill="rgb(255,255,255)" fill-opacity="1" d=" M8.25,-3.6429998874664307 C8.25,-3.6429998874664307 1,-8.70199966430664 1,-8.70199966430664 C0.4000000059604645,-9.121999740600586 -0.4000000059604645,-9.121999740600586 -1,-8.70199966430664 C-1,-8.70199966430664 -8.25,-3.6429998874664307 -8.25,-3.6429998874664307 C-8.720000267028809,-3.322999954223633 -9,-2.7820000648498535 -9,-2.2119998931884766 C-9,-2.2119998931884766 -9,7.26800012588501 -9,7.26800012588501 C-9,8.227999687194824 -8.210000038146973,9.017999649047852 -7.25,9.017999649047852 C-7.25,9.017999649047852 -4.25,9.017999649047852 -4.25,9.017999649047852 C-2.7300000190734863,9.017999649047852 -1.5,7.788000106811523 -1.5,6.26800012588501 C-1.5,6.26800012588501 -1.5,2.7679998874664307 -1.5,2.7679998874664307 C-1.5,2.628000020980835 -1.3899999856948853,2.5179998874664307 -1.25,2.5179998874664307 C-1.25,2.5179998874664307 1.25,2.5179998874664307 1.25,2.5179998874664307 C1.3899999856948853,2.5179998874664307 1.5,2.628000020980835 1.5,2.7679998874664307 C1.5,2.7679998874664307 1.5,6.26800012588501 1.5,6.26800012588501 C1.5,7.788000106811523 2.7300000190734863,9.017999649047852 4.25,9.017999649047852 C4.25,9.017999649047852 7.25,9.017999649047852 7.25,9.017999649047852 C8.210000038146973,9.017999649047852 9,8.227999687194824 9,7.26800012588501 C9,7.26800012588501 9,-2.2119998931884766 9,-2.2119998931884766 C9,-2.7820000648498535 8.720000267028809,-3.322999954223633 8.25,-3.6429998874664307z M7.5,7.26800012588501 C7.5,7.4079999923706055 7.389999866485596,7.51800012588501 7.25,7.51800012588501 C7.25,7.51800012588501 4.25,7.51800012588501 4.25,7.51800012588501 C3.559999942779541,7.51800012588501 3,6.958000183105469 3,6.26800012588501 C3,6.26800012588501 3,2.7679998874664307 3,2.7679998874664307 C3,1.8079999685287476 2.2100000381469727,1.0180000066757202 1.25,1.0180000066757202 C1.25,1.0180000066757202 -1.25,1.0180000066757202 -1.25,1.0180000066757202 C-2.2100000381469727,1.0180000066757202 -3,1.8079999685287476 -3,2.7679998874664307 C-3,2.7679998874664307 -3,6.26800012588501 -3,6.26800012588501 C-3,6.958000183105469 -3.559999942779541,7.51800012588501 -4.25,7.51800012588501 C-4.25,7.51800012588501 -7.25,7.51800012588501 -7.25,7.51800012588501 C-7.389999866485596,7.51800012588501 -7.5,7.4079999923706055 -7.5,7.26800012588501 C-7.5,7.26800012588501 -7.5,-2.2119998931884766 -7.5,-2.2119998931884766 C-7.5,-2.2920000553131104 -7.460000038146973,-2.372999906539917 -7.389999866485596,-2.4230000972747803 C-7.389999866485596,-2.4230000972747803 -0.14000000059604645,-7.4730000495910645 -0.14000000059604645,-7.4730000495910645 C-0.05000000074505806,-7.5329999923706055 0.05999999865889549,-7.5329999923706055 0.15000000596046448,-7.4730000495910645 C0.15000000596046448,-7.4730000495910645 7.400000095367432,-2.4230000972747803 7.400000095367432,-2.4230000972747803 C7.46999979019165,-2.372999906539917 7.510000228881836,-2.302000045776367 7.510000228881836,-2.2119998931884766 C7.510000228881836,-2.2119998931884766 7.510000228881836,7.26800012588501 7.510000228881836,7.26800012588501 C7.510000228881836,7.26800012588501 7.5,7.26800012588501 7.5,7.26800012588501z"/></g></g><g class="primary design" style="display: none;" transform="matrix(20.829999923706055,0,0,20.829999923706055,250.0019989013672,249.63699340820312)" opacity="1"><g opacity="1" transform="matrix(1,0,0,1,0,0)"><path fill="rgb(18,19,49)" fill-opacity="1" d=" M8.25,-3.6429998874664307 C8.25,-3.6429998874664307 1,-8.70199966430664 1,-8.70199966430664 C0.4000000059604645,-9.121999740600586 -0.4000000059604645,-9.121999740600586 -1,-8.70199966430664 C-1,-8.70199966430664 -8.25,-3.6429998874664307 -8.25,-3.6429998874664307 C-8.720000267028809,-3.322999954223633 -9,-2.7820000648498535 -9,-2.2119998931884766 C-9,-2.2119998931884766 -9,7.26800012588501 -9,7.26800012588501 C-9,8.227999687194824 -8.210000038146973,9.017999649047852 -7.25,9.017999649047852 C-7.25,9.017999649047852 -4.25,9.017999649047852 -4.25,9.017999649047852 C-2.7300000190734863,9.017999649047852 -1.5,7.788000106811523 -1.5,6.26800012588501 C-1.5,6.26800012588501 -1.5,2.7679998874664307 -1.5,2.7679998874664307 C-1.5,2.628000020980835 -1.3899999856948853,2.5179998874664307 -1.25,2.5179998874664307 C-1.25,2.5179998874664307 1.25,2.5179998874664307 1.25,2.5179998874664307 C1.3899999856948853,2.5179998874664307 1.5,2.628000020980835 1.5,2.7679998874664307 C1.5,2.7679998874664307 1.5,6.26800012588501 1.5,6.26800012588501 C1.5,7.788000106811523 2.7300000190734863,9.017999649047852 4.25,9.017999649047852 C4.25,9.017999649047852 7.25,9.017999649047852 7.25,9.017999649047852 C8.210000038146973,9.017999649047852 9,8.227999687194824 9,7.26800012588501 C9,7.26800012588501 9,-2.2119998931884766 9,-2.2119998931884766 C9,-2.7820000648498535 8.720000267028809,-3.322999954223633 8.25,-3.6429998874664307z M7.5,7.26800012588501 C7.5,7.4079999923706055 7.389999866485596,7.51800012588501 7.25,7.51800012588501 C7.25,7.51800012588501 4.25,7.51800012588501 4.25,7.51800012588501 C3.559999942779541,7.51800012588501 3,6.958000183105469 3,6.26800012588501 C3,6.26800012588501 3,2.7679998874664307 3,2.7679998874664307 C3,1.8079999685287476 2.2100000381469727,1.0180000066757202 1.25,1.0180000066757202 C1.25,1.0180000066757202 -1.25,1.0180000066757202 -1.25,1.0180000066757202 C-2.2100000381469727,1.0180000066757202 -3,1.8079999685287476 -3,2.7679998874664307 C-3,2.7679998874664307 -3,6.26800012588501 -3,6.26800012588501 C-3,6.958000183105469 -3.559999942779541,7.51800012588501 -4.25,7.51800012588501 C-4.25,7.51800012588501 -7.25,7.51800012588501 -7.25,7.51800012588501 C-7.389999866485596,7.51800012588501 -7.5,7.4079999923706055 -7.5,7.26800012588501 C-7.5,7.26800012588501 -7.5,-2.2119998931884766 -7.5,-2.2119998931884766 C-7.5,-2.2920000553131104 -7.460000038146973,-2.372999906539917 -7.389999866485596,-2.4230000972747803 C-7.389999866485596,-2.4230000972747803 -0.14000000059604645,-7.4730000495910645 -0.14000000059604645,-7.4730000495910645 C-0.05000000074505806,-7.5329999923706055 0.05999999865889549,-7.5329999923706055 0.15000000596046448,-7.4730000495910645 C0.15000000596046448,-7.4730000495910645 7.400000095367432,-2.4230000972747803 7.400000095367432,-2.4230000972747803 C7.46999979019165,-2.372999906539917 7.510000228881836,-2.302000045776367 7.510000228881836,-2.2119998931884766 C7.510000228881836,-2.2119998931884766 7.510000228881836,7.26800012588501 7.510000228881836,7.26800012588501 C7.510000228881836,7.26800012588501 7.5,7.26800012588501 7.5,7.26800012588501z"/></g></g><g class="primary design" style="display: none;" transform="matrix(1,0,0,1,250.0030059814453,249.6790008544922)" opacity="1"><g opacity="1" transform="matrix(1,0,0,1,0,0)"><path stroke-linecap="round" stroke-linejoin="round" fill-opacity="0" stroke="rgb(18,19,49)" stroke-opacity="1" stroke-width="31.3" d=" M26.06386947631836,36.68899917602539 C26.06386947631836,36.68899917602539 -26.0307674407959,36.80699920654297 -26.0307674407959,36.80699920654297 C-34.4542236328125,36.80699920654297 -46.888423919677734,43.632999420166016 -46.888423919677734,57.71699905395508 C-46.888423919677734,57.71699905395508 -47.260398864746094,130.32699584960938 -47.260398864746094,130.32699584960938 C-47.260398864746094,153.4510040283203 -65.89619445800781,172.1999969482422 -88.8807144165039,172.1999969482422 C-88.8807144165039,172.1999969482422 -150.009765625,172.1999969482422 -150.009765625,172.1999969482422 C-161.88299560546875,172.1999969482422 -171.50738525390625,162.51600646972656 -171.50738525390625,150.57200622558594 C-171.50738525390625,150.57200622558594 -171.91835021972656,-46.0890007019043 -171.91835021972656,-46.0890007019043 C-171.91835021972656,-54.742000579833984 -166.38270568847656,-61.117000579833984 -162.89793395996094,-63.17300033569336 C-162.89793395996094,-63.17300033569336 -19.463191986083984,-163.16400146484375 -12.017672538757324,-168.34300231933594 C-4.70514440536499,-173.42999267578125 4.043291091918945,-173.61700439453125 11.9177827835083,-168.40499877929688 C18.242374420166016,-164.218994140625 162.85203552246094,-63.154998779296875 162.85203552246094,-63.154998779296875 C165.1588897705078,-61.80400085449219 171.87246704101562,-56.367000579833984 171.87246704101562,-46.00899887084961 C171.87246704101562,-46.00899887084961 171.8524627685547,151.44895935058594 171.8524627685547,151.44895935058594 C171.8524627685547,163.2542724609375 162.34683227539062,172.20399475097656 151.00144958496094,172.20399475097656 C151.00144958496094,172.20399475097656 88.44284057617188,172.1999969482422 88.44284057617188,172.1999969482422 C65.81730651855469,172.1999969482422 46.82252883911133,153.35899353027344 46.82252883911133,130.50799560546875 C46.82252883911133,130.50799560546875 46.888526916503906,57.624000549316406 46.888526916503906,57.624000549316406 C46.888526916503906,47.507999420166016 38.91704177856445,36.68899917602539 26.06386947631836,36.68899917602539z"/></g></g><g class="primary design" style="display: none;" transform="matrix(1,0,0,1,250.0030059814453,249.6790008544922)" opacity="1"><g opacity="1" transform="matrix(1,0,0,1,0,0)"><path stroke-linecap="round" stroke-linejoin="round" fill-opacity="0" stroke="rgb(18,19,49)" stroke-opacity="1" stroke-width="31.3" d=" M-0.7677645683288574,-172.13101196289062 C-0.7677645683288574,-172.13101196289062 -0.48831966519355774,-171.80409240722656 -0.48800593614578247,-172.23204040527344 C3.6817164421081543,-172.2320556640625 7.928433418273926,-171.06605529785156 11.949165344238281,-168.40504455566406 C18.273744583129883,-164.21905517578125 162.88311767578125,-63.15504837036133 162.88311767578125,-63.15504837036133 C165.18995666503906,-61.804046630859375 171.9035186767578,-56.36704635620117 171.9035186767578,-46.00904846191406 C171.9035186767578,-46.00904846191406 171.88351440429688,151.44595336914062 171.88351440429688,151.44595336914062 C171.88351440429688,163.25294494628906 162.3771514892578,172.20394897460938 151.03089904785156,172.20394897460938 C151.03089904785156,172.20394897460938 150.9396209716797,171.83705139160156 150.9396209716797,171.83705139160156"/></g></g></g><g clip-path="url(#__lottie_element_29)" style="display: block;" transform="matrix(1,0,0,1,0,0)" opacity="0"><g class="primary design" style="display: block;" transform="matrix(20.829999923706055,0,0,20.829999923706055,250.0019989013672,249.63699340820312)" opacity="1"><g opacity="1" transform="matrix(1,0,0,1,0,0)"><path fill="rgb(255,255,255)" fill-opacity="1" d=" M8.25,-3.6429998874664307 C8.25,-3.6429998874664307 1,-8.70199966430664 1,-8.70199966430664 C0.4000000059604645,-9.121999740600586 -0.4000000059604645,-9.121999740600586 -1,-8.70199966430664 C-1,-8.70199966430664 -8.25,-3.6429998874664307 -8.25,-3.6429998874664307 C-8.720000267028809,-3.322999954223633 -9,-2.7820000648498535 -9,-2.2119998931884766 C-9,-2.2119998931884766 -9,7.26800012588501 -9,7.26800012588501 C-9,8.227999687194824 -8.210000038146973,9.017999649047852 -7.25,9.017999649047852 C-7.25,9.017999649047852 -4.25,9.017999649047852 -4.25,9.017999649047852 C-2.7300000190734863,9.017999649047852 -1.5,7.788000106811523 -1.5,6.26800012588501 C-1.5,6.26800012588501 -1.5,2.7679998874664307 -1.5,2.7679998874664307 C-1.5,2.628000020980835 -1.3899999856948853,2.5179998874664307 -1.25,2.5179998874664307 C-1.25,2.5179998874664307 1.25,2.5179998874664307 1.25,2.5179998874664307 C1.3899999856948853,2.5179998874664307 1.5,2.628000020980835 1.5,2.7679998874664307 C1.5,2.7679998874664307 1.5,6.26800012588501 1.5,6.26800012588501 C1.5,7.788000106811523 2.7300000190734863,9.017999649047852 4.25,9.017999649047852 C4.25,9.017999649047852 7.25,9.017999649047852 7.25,9.017999649047852 C8.210000038146973,9.017999649047852 9,8.227999687194824 9,7.26800012588501 C9,7.26800012588501 9,-2.2119998931884766 9,-2.2119998931884766 C9,-2.7820000648498535 8.720000267028809,-3.322999954223633 8.25,-3.6429998874664307z M7.5,7.26800012588501 C7.5,7.4079999923706055 7.389999866485596,7.51800012588501 7.25,7.51800012588501 C7.25,7.51800012588501 4.25,7.51800012588501 4.25,7.51800012588501 C3.559999942779541,7.51800012588501 3,6.958000183105469 3,6.26800012588501 C3,6.26800012588501 3,2.7679998874664307 3,2.7679998874664307 C3,1.8079999685287476 2.2100000381469727,1.0180000066757202 1.25,1.0180000066757202 C1.25,1.0180000066757202 -1.25,1.0180000066757202 -1.25,1.0180000066757202 C-2.2100000381469727,1.0180000066757202 -3,1.8079999685287476 -3,2.7679998874664307 C-3,2.7679998874664307 -3,6.26800012588501 -3,6.26800012588501 C-3,6.958000183105469 -3.559999942779541,7.51800012588501 -4.25,7.51800012588501 C-4.25,7.51800012588501 -7.25,7.51800012588501 -7.25,7.51800012588501 C-7.389999866485596,7.51800012588501 -7.5,7.4079999923706055 -7.5,7.26800012588501 C-7.5,7.26800012588501 -7.5,-2.2119998931884766 -7.5,-2.2119998931884766 C-7.5,-2.2920000553131104 -7.460000038146973,-2.372999906539917 -7.389999866485596,-2.4230000972747803 C-7.389999866485596,-2.4230000972747803 -0.14000000059604645,-7.4730000495910645 -0.14000000059604645,-7.4730000495910645 C-0.05000000074505806,-7.5329999923706055 0.05999999865889549,-7.5329999923706055 0.15000000596046448,-7.4730000495910645 C0.15000000596046448,-7.4730000495910645 7.400000095367432,-2.4230000972747803 7.400000095367432,-2.4230000972747803 C7.46999979019165,-2.372999906539917 7.510000228881836,-2.302000045776367 7.510000228881836,-2.2119998931884766 C7.510000228881836,-2.2119998931884766 7.510000228881836,7.26800012588501 7.510000228881836,7.26800012588501 C7.510000228881836,7.26800012588501 7.5,7.26800012588501 7.5,7.26800012588501z"/></g></g><g class="primary design" style="display: none;" transform="matrix(20.829999923706055,0,0,20.829999923706055,250.0019989013672,249.63699340820312)" opacity="1"><g opacity="1" transform="matrix(1,0,0,1,0,0)"><path fill="rgb(18,19,49)" fill-opacity="1" d=" M8.25,-3.6429998874664307 C8.25,-3.6429998874664307 1,-8.70199966430664 1,-8.70199966430664 C0.4000000059604645,-9.121999740600586 -0.4000000059604645,-9.121999740600586 -1,-8.70199966430664 C-1,-8.70199966430664 -8.25,-3.6429998874664307 -8.25,-3.6429998874664307 C-8.720000267028809,-3.322999954223633 -9,-2.7820000648498535 -9,-2.2119998931884766 C-9,-2.2119998931884766 -9,7.26800012588501 -9,7.26800012588501 C-9,8.227999687194824 -8.210000038146973,9.017999649047852 -7.25,9.017999649047852 C-7.25,9.017999649047852 -4.25,9.017999649047852 -4.25,9.017999649047852 C-2.7300000190734863,9.017999649047852 -1.5,7.788000106811523 -1.5,6.26800012588501 C-1.5,6.26800012588501 -1.5,2.7679998874664307 -1.5,2.7679998874664307 C-1.5,2.628000020980835 -1.3899999856948853,2.5179998874664307 -1.25,2.5179998874664307 C-1.25,2.5179998874664307 1.25,2.5179998874664307 1.25,2.5179998874664307 C1.3899999856948853,2.5179998874664307 1.5,2.628000020980835 1.5,2.7679998874664307 C1.5,2.7679998874664307 1.5,6.26800012588501 1.5,6.26800012588501 C1.5,7.788000106811523 2.7300000190734863,9.017999649047852 4.25,9.017999649047852 C4.25,9.017999649047852 7.25,9.017999649047852 7.25,9.017999649047852 C8.210000038146973,9.017999649047852 9,8.227999687194824 9,7.26800012588501 C9,7.26800012588501 9,-2.2119998931884766 9,-2.2119998931884766 C9,-2.7820000648498535 8.720000267028809,-3.322999954223633 8.25,-3.6429998874664307z M7.5,7.26800012588501 C7.5,7.4079999923706055 7.389999866485596,7.51800012588501 7.25,7.51800012588501 C7.25,7.51800012588501 4.25,7.51800012588501 4.25,7.51800012588501 C3.559999942779541,7.51800012588501 3,6.958000183105469 3,6.26800012588501 C3,6.26800012588501 3,2.7679998874664307 3,2.7679998874664307 C3,1.8079999685287476 2.2100000381469727,1.0180000066757202 1.25,1.0180000066757202 C1.25,1.0180000066757202 -1.25,1.0180000066757202 -1.25,1.0180000066757202 C-2.2100000381469727,1.0180000066757202 -3,1.8079999685287476 -3,2.7679998874664307 C-3,2.7679998874664307 -3,6.26800012588501 -3,6.26800012588501 C-3,6.958000183105469 -3.559999942779541,7.51800012588501 -4.25,7.51800012588501 C-4.25,7.51800012588501 -7.25,7.51800012588501 -7.25,7.51800012588501 C-7.389999866485596,7.51800012588501 -7.5,7.4079999923706055 -7.5,7.26800012588501 C-7.5,7.26800012588501 -7.5,-2.2119998931884766 -7.5,-2.2119998931884766 C-7.5,-2.2920000553131104 -7.460000038146973,-2.372999906539917 -7.389999866485596,-2.4230000972747803 C-7.389999866485596,-2.4230000972747803 -0.14000000059604645,-7.4730000495910645 -0.14000000059604645,-7.4730000495910645 C-0.05000000074505806,-7.5329999923706055 0.05999999865889549,-7.5329999923706055 0.15000000596046448,-7.4730000495910645 C0.15000000596046448,-7.4730000495910645 7.400000095367432,-2.4230000972747803 7.400000095367432,-2.4230000972747803 C7.46999979019165,-2.372999906539917 7.510000228881836,-2.302000045776367 7.510000228881836,-2.2119998931884766 C7.510000228881836,-2.2119998931884766 7.510000228881836,7.26800012588501 7.510000228881836,7.26800012588501 C7.510000228881836,7.26800012588501 7.5,7.26800012588501 7.5,7.26800012588501z"/></g></g><g class="primary design" style="display: none;" transform="matrix(1,0,0,1,250.0030059814453,249.6790008544922)" opacity="1"><g opacity="1" transform="matrix(1,0,0,1,0,0)"><path stroke-linecap="round" stroke-linejoin="round" fill-opacity="0" stroke="rgb(18,19,49)" stroke-opacity="1" stroke-width="31.3" d=" M162.9252166748047,-63.17766571044922 C162.9252166748047,-63.17766571044922 11.938803672790527,-168.41842651367188 11.938803672790527,-168.41842651367188 C4.7630228996276855,-173.4210968017578 -4.762546539306641,-173.4210968017578 -11.93783187866211,-168.41842651367188 C-11.93783187866211,-168.41842651367188 -162.9229278564453,-63.17763900756836 -162.9229278564453,-63.17763900756836 C-168.51585388183594,-59.27840805053711 -171.84776306152344,-52.886192321777344 -171.84776306152344,-46.07154846191406 C-171.84776306152344,-46.07154846191406 -171.84783935546875,151.3612518310547 -171.84783935546875,151.3612518310547 C-171.84783935546875,162.87875366210938 -162.5109405517578,172.19992065429688 -151.01373291015625,172.19992065429688 C-151.01373291015625,172.19992065429688 -88.5558853149414,172.1999969482422 -88.5558853149414,172.1999969482422 C-65.55076599121094,172.1999969482422 -46.903114318847656,153.5527801513672 -46.903114318847656,130.5432891845703 C-46.903114318847656,130.5432891845703 -46.903289794921875,57.60170364379883 -46.903289794921875,57.60170364379883 C-46.903289794921875,46.09016036987305 -37.57474899291992,36.76203918457031 -26.07291603088379,36.75941848754883 C-26.07291603088379,36.75941848754883 -5.536144733428955,36.73683166503906 -5.534461975097656,36.735660552978516 C-5.532810211181641,36.73451232910156 -1.1118319034576416,36.73447036743164 -1.1100527048110962,36.73564910888672 C-1.108623743057251,36.736595153808594 26.072912216186523,36.759422302246094 26.072912216186523,36.759422302246094 C37.576759338378906,36.762718200683594 46.903202056884766,46.0894775390625 46.903202056884766,57.60173797607422 C46.903202056884766,57.60173797607422 46.90327835083008,130.54348754882812 46.90327835083008,130.54348754882812 C46.90327835083008,153.55294799804688 65.5518798828125,172.1999969482422 88.55611419677734,172.1999969482422 C88.55611419677734,172.1999969482422 151.01397705078125,172.19992065429688 151.01397705078125,172.19992065429688 C162.51226806640625,172.19992065429688 171.84774780273438,162.8794403076172 171.84774780273438,151.3612823486328 C171.84774780273438,151.3612823486328 171.84776306152344,-46.071571350097656 171.84776306152344,-46.071571350097656 C171.84776306152344,-52.88531494140625 168.51885986328125,-59.27569580078125 162.9252166748047,-63.17766571044922z"/></g></g></g><g clip-path="url(#__lottie_element_33)" style="display: block;" transform="matrix(1,0,0,1,0,0)" opacity="0"><g class="primary design" style="display: none;" transform="matrix(20.829999923706055,0,0,20.829999923706055,250.0019989013672,249.63699340820312)" opacity="1"><g opacity="1" transform="matrix(1,0,0,1,0,0)"><path fill="rgb(18,19,49)" fill-opacity="1" d=" M8.25,-3.6429998874664307 C8.25,-3.6429998874664307 1,-8.70199966430664 1,-8.70199966430664 C0.4000000059604645,-9.121999740600586 -0.4000000059604645,-9.121999740600586 -1,-8.70199966430664 C-1,-8.70199966430664 -8.25,-3.6429998874664307 -8.25,-3.6429998874664307 C-8.720000267028809,-3.322999954223633 -9,-2.7820000648498535 -9,-2.2119998931884766 C-9,-2.2119998931884766 -9,7.26800012588501 -9,7.26800012588501 C-9,8.227999687194824 -8.210000038146973,9.017999649047852 -7.25,9.017999649047852 C-7.25,9.017999649047852 -4.25,9.017999649047852 -4.25,9.017999649047852 C-2.7300000190734863,9.017999649047852 -1.5,7.788000106811523 -1.5,6.26800012588501 C-1.5,6.26800012588501 -1.5,2.7679998874664307 -1.5,2.7679998874664307 C-1.5,2.628000020980835 -1.3899999856948853,2.5179998874664307 -1.25,2.5179998874664307 C-1.25,2.5179998874664307 1.25,2.5179998874664307 1.25,2.5179998874664307 C1.3899999856948853,2.5179998874664307 1.5,2.628000020980835 1.5,2.7679998874664307 C1.5,2.7679998874664307 1.5,6.26800012588501 1.5,6.26800012588501 C1.5,7.788000106811523 2.7300000190734863,9.017999649047852 4.25,9.017999649047852 C4.25,9.017999649047852 7.25,9.017999649047852 7.25,9.017999649047852 C8.210000038146973,9.017999649047852 9,8.227999687194824 9,7.26800012588501 C9,7.26800012588501 9,-2.2119998931884766 9,-2.2119998931884766 C9,-2.7820000648498535 8.720000267028809,-3.322999954223633 8.25,-3.6429998874664307z M7.5,7.26800012588501 C7.5,7.4079999923706055 7.389999866485596,7.51800012588501 7.25,7.51800012588501 C7.25,7.51800012588501 4.25,7.51800012588501 4.25,7.51800012588501 C3.559999942779541,7.51800012588501 3,6.958000183105469 3,6.26800012588501 C3,6.26800012588501 3,2.7679998874664307 3,2.7679998874664307 C3,1.8079999685287476 2.2100000381469727,1.0180000066757202 1.25,1.0180000066757202 C1.25,1.0180000066757202 -1.25,1.0180000066757202 -1.25,1.0180000066757202 C-2.2100000381469727,1.0180000066757202 -3,1.8079999685287476 -3,2.7679998874664307 C-3,2.7679998874664307 -3,6.26800012588501 -3,6.26800012588501 C-3,6.958000183105469 -3.559999942779541,7.51800012588501 -4.25,7.51800012588501 C-4.25,7.51800012588501 -7.25,7.51800012588501 -7.25,7.51800012588501 C-7.389999866485596,7.51800012588501 -7.5,7.4079999923706055 -7.5,7.26800012588501 C-7.5,7.26800012588501 -7.5,-2.2119998931884766 -7.5,-2.2119998931884766 C-7.5,-2.2920000553131104 -7.460000038146973,-2.372999906539917 -7.389999866485596,-2.4230000972747803 C-7.389999866485596,-2.4230000972747803 -0.14000000059604645,-7.4730000495910645 -0.14000000059604645,-7.4730000495910645 C-0.05000000074505806,-7.5329999923706055 0.05999999865889549,-7.5329999923706055 0.15000000596046448,-7.4730000495910645 C0.15000000596046448,-7.4730000495910645 7.400000095367432,-2.4230000972747803 7.400000095367432,-2.4230000972747803 C7.46999979019165,-2.372999906539917 7.510000228881836,-2.302000045776367 7.510000228881836,-2.2119998931884766 C7.510000228881836,-2.2119998931884766 7.510000228881836,7.26800012588501 7.510000228881836,7.26800012588501 C7.510000228881836,7.26800012588501 7.5,7.26800012588501 7.5,7.26800012588501z"/></g></g><g class="primary design" style="display: none;" transform="matrix(1,0,0,1,250.0030059814453,249.6790008544922)" opacity="1"><g opacity="1" transform="matrix(1,0,0,1,0,0)"><path stroke-linecap="round" stroke-linejoin="round" fill-opacity="0" stroke="rgb(18,19,49)" stroke-opacity="1" stroke-width="31.3" d=" M-98.32499694824219,173.1959991455078 C-132.4980010986328,173.1959991455078 -171.427001953125,173.1959991455078 -171.427001953125,173.1959991455078 C-171.4690399169922,173.19647216796875 -171.5030059814453,173.1623077392578 -171.5030059814453,173.1201629638672 C-171.5030059814453,173.1201629638672 -172.01165771484375,172.2179718017578 -172.01165771484375,172.2179718017578 C-172.01165771484375,172.18743896484375 -171.96322631835938,172.16494750976562 -171.9329833984375,172.15769958496094 C-171.9329833984375,172.15769958496094 -19.546653747558594,172.1068115234375 -12.100654602050781,172.1014862060547 C-4.787654399871826,172.09649658203125 3.961345911026001,172.09584045410156 11.836345672607422,172.1012725830078 C18.161346435546875,172.10508728027344 171.61805725097656,172.1577606201172 171.61805725097656,172.1577606201172 C171.66505432128906,172.1625213623047 171.8013458251953,172.1817169189453 171.8013458251953,172.21826171875 C171.8013458251953,172.21826171875 171.87899780273438,172.24734497070312 171.87899780273438,172.24734497070312 C171.87899780273438,172.7892303466797 171.44288635253906,173.20046997070312 170.92153930664062,173.20046997070312 C170.9219970703125,173.1999969482422 167.99200439453125,173.1999969482422 163.03399658203125,173.1999969482422"/></g></g><g class="primary design" clip-path="url(#__lottie_element_77)" style="display: none;" transform="matrix(1,0,0,1,250.0030059814453,249.6790008544922)" opacity="1"><g opacity="1" transform="matrix(1,0,0,1,0,0)"><path stroke-linecap="round" stroke-linejoin="round" fill-opacity="0" stroke="rgb(18,19,49)" stroke-opacity="1" stroke-width="31.3" d=" M158.54299926757812,173.20399475097656 C127.14700317382812,173.2030029296875 47.21900177001953,173.1999969482422 47.21900177001953,173.1999969482422 C47.01321029663086,173.19998168945312 46.933998107910156,173.16477966308594 46.84000015258789,173.19552612304688 C46.84000015258789,173.19552612304688 46.407005310058594,173.19070434570312 46.407005310058594,173.19070434570312 C46.407005310058594,173.19259643554688 46.24991989135742,173.19447326660156 45.99677658081055,173.19447326660156 C45.99677658081055,173.19447326660156 45.99677658081055,173.19447326660156 45.99677658081055,173.19447326660156 C45.99677658081055,173.19447326660156 -46.002777099609375,173.1934814453125 -46.002777099609375,173.1934814453125 C-46.55686569213867,173.1934814453125 -47.37599563598633,173.1885528564453 -47.37599563598633,173.1817169189453 C-47.37599563598633,173.1817169189453 -47.24300003051758,173.2265167236328 -47.24300003051758,173.2265167236328 C-47.37799835205078,173.19578552246094 -47.417205810546875,173.19998168945312 -47.62546157836914,173.19998168945312 C-47.625,173.1999969482422 -100.86499786376953,173.1999969482422 -137.53900146484375,173.1999969482422"/></g></g></g><g style="display: none;"><path/></g></g></svg>